<?xml version="1.0" standalone="no"?>
<!DOCTYPE svg PUBLIC "-//W3C//DTD SVG 20010904//EN"
 "http://www.w3.org/TR/2001/REC-SVG-20010904/DTD/svg10.dtd">
<svg version="1.0" xmlns="http://www.w3.org/2000/svg"
 width="143.000000pt" height="52.000000pt" viewBox="0 0 143.000000 52.000000"
 preserveAspectRatio="xMidYMid meet">

<g transform="translate(0.000000,52.000000) scale(0.100000,-0.100000)"
fill="#000000" stroke="none">
<path d="M500 486 c-54 -15 -119 -48 -178 -88 -43 -29 -44 -30 -83 -14 -92 37
-209 8 -209 -52 0 -28 57 -210 79 -250 22 -41 110 -23 197 40 l41 30 121 -61
c66 -34 127 -61 136 -61 27 0 30 28 8 93 l-20 62 41 83 c69 141 54 220 -44
228 -24 2 -64 -3 -89 -10z m66 -271 c37 -56 -36 -62 -99 -7 -23 20 -6 32 45
32 29 0 41 -6 54 -25z"/>
<path d="M714 331 c-73 -45 -70 -187 5 -225 40 -21 191 -23 191 -2 0 10 -19
15 -75 18 -97 4 -119 23 -118 99 1 75 22 93 115 96 57 1 74 5 76 17 5 25 -152
22 -194 -3z"/>
<path d="M958 334 c-38 -20 -58 -63 -58 -125 0 -45 4 -55 34 -85 33 -33 36
-34 120 -34 70 0 86 3 86 15 0 12 -13 15 -57 15 -67 0 -102 15 -120 50 l-12
25 92 5 c73 4 92 8 92 20 0 12 -18 16 -87 18 -91 3 -97 7 -82 46 8 20 74 38
128 34 32 -2 42 1 44 15 3 15 -6 17 -75 17 -49 -1 -88 -6 -105 -16z"/>
<path d="M1160 220 l0 -130 103 0 c124 0 147 11 147 69 0 22 -6 44 -15 51 -14
12 -14 15 0 30 21 23 19 73 -3 93 -15 14 -40 17 -125 17 l-107 0 0 -130z m188
86 c16 -10 15 -41 -2 -55 -9 -7 -38 -11 -73 -9 -52 3 -58 5 -61 26 -7 44 3 51
65 48 33 -1 64 -6 71 -10z m10 -138 c4 -36 -24 -50 -91 -46 l-52 3 -3 38 -3
38 73 -3 c71 -3 73 -4 76 -30z"/>
<path d="M903 54 c-3 -8 -1 -20 6 -27 8 -8 11 -4 11 16 0 30 -7 35 -17 11z"/>
<path d="M761 44 c0 -11 3 -14 6 -6 3 7 2 16 -1 19 -3 4 -6 -2 -5 -13z"/>
<path d="M853 40 c1 -14 4 -16 14 -8 16 13 16 15 -1 21 -10 4 -14 0 -13 -13z"/>
<path d="M1041 44 c0 -11 3 -14 6 -6 3 7 2 16 -1 19 -3 4 -6 -2 -5 -13z"/>
<path d="M1170 47 c0 -8 6 -14 14 -14 8 0 12 6 9 14 -7 17 -23 17 -23 0z"/>
<path d="M1303 53 c-13 -2 -23 -8 -23 -13 0 -10 38 -1 46 11 3 5 4 8 2 8 -2
-1 -13 -4 -25 -6z"/>
<path d="M705 40 c-3 -6 1 -7 9 -4 18 7 21 14 7 14 -6 0 -13 -4 -16 -10z"/>
<path d="M976 35 c-3 -8 -1 -15 4 -15 6 0 10 5 10 11 0 6 7 9 15 5 8 -3 15 -1
15 4 0 16 -37 11 -44 -5z"/>
<path d="M1075 40 c-3 -5 -1 -10 4 -10 6 0 11 5 11 10 0 6 -2 10 -4 10 -3 0
-8 -4 -11 -10z"/>
<path d="M1130 40 c-13 -8 -12 -10 3 -10 9 0 17 5 17 10 0 12 -1 12 -20 0z"/>
<path d="M1385 41 c-3 -5 -1 -12 5 -16 5 -3 10 1 10 9 0 18 -6 21 -15 7z"/>
</g>
</svg>
